<?xml version="1.0" encoding="utf-8"?>
<!-- Generator: Adobe Illustrator 16.0.0, SVG Export Plug-In . SVG Version: 6.00 Build 0)  -->
<!DOCTYPE svg PUBLIC "-//W3C//DTD SVG 1.1//EN" "http://www.w3.org/Graphics/SVG/1.1/DTD/svg11.dtd">
<svg version="1.1" id="Layer_1" xmlns="http://www.w3.org/2000/svg" xmlns:xlink="http://www.w3.org/1999/xlink" x="0px" y="0px"
	 width="181.527px" height="112.06px" viewBox="0 0 181.527 112.06" enable-background="new 0 0 181.527 112.06"
	 xml:space="preserve">
<g>
	<path fill="none" stroke="#000000" stroke-width="3" stroke-miterlimit="10" d="M53.466,28.905V5.944c0,0-0.479-4.43,4.43-4.43
		c4.911,0,62.883,0,62.883,0s4.132-0.479,4.132,4.13c0,4.61,0,21.853,0,21.853"/>
	<circle fill="#F8981D" stroke="#000000" stroke-width="3" stroke-miterlimit="10" cx="53.467" cy="28.905" r="5.987"/>
	
		<rect x="99.527" y="15.696" fill="#38A4DD" stroke="#000000" stroke-width="3" stroke-miterlimit="10" width="50.768" height="34.964"/>
</g>
<text transform="matrix(0.97 0 0 1 -3.8813 111.5596)" display="none" font-family="'DINCondensed-Bold'" font-size="83.3608">Di·Dash</text>
<g>
	<path d="M0,52.207h12.21c4.69,0,8.274,1.348,10.754,4.043c2.479,2.695,3.719,6.46,3.719,11.295v27.76
		c0,5.558-1.308,9.656-3.921,12.295c-2.616,2.641-6.375,3.96-11.28,3.96H0V52.207z M8.248,103.557h3.8
		c2.317,0,3.962-0.597,4.933-1.792c0.97-1.194,1.456-3.07,1.456-5.627V67.545c0-2.334-0.458-4.139-1.375-5.418
		c-0.917-1.278-2.588-1.918-5.014-1.918h-3.8V103.557z"/>
	<path d="M33.96,52.207h8.248v8.502H33.96V52.207z M33.96,69.296h8.248v42.264H33.96V69.296z"/>
	<path d="M47.948,86.718c0-1.444,0.512-2.694,1.537-3.751c1.023-1.055,2.236-1.584,3.639-1.584c1.401,0,2.614,0.529,3.639,1.584
		c1.023,1.057,1.536,2.307,1.536,3.751c0,1.446-0.513,2.696-1.536,3.752c-1.025,1.056-2.238,1.583-3.639,1.583
		c-1.402,0-2.615-0.527-3.639-1.583C48.46,89.414,47.948,88.164,47.948,86.718z"/>
	<path d="M64.524,52.207h12.21c4.69,0,8.274,1.348,10.754,4.043c2.479,2.695,3.719,6.46,3.719,11.295v27.76
		c0,5.558-1.308,9.656-3.921,12.295c-2.616,2.641-6.375,3.96-11.28,3.96H64.524V52.207z M72.771,103.557h3.8
		c2.317,0,3.962-0.597,4.933-1.792c0.97-1.194,1.456-3.07,1.456-5.627V67.545c0-2.334-0.458-4.139-1.375-5.418
		c-0.917-1.278-2.588-1.918-5.014-1.918h-3.8V103.557z"/>
	<path d="M114.09,107.225h-0.161c-1.079,1.557-2.171,2.751-3.275,3.585c-1.105,0.833-2.655,1.25-4.649,1.25
		c-0.971,0-1.969-0.153-2.992-0.458c-1.024-0.305-1.98-0.861-2.87-1.668c-0.89-0.805-1.617-1.944-2.184-3.417
		c-0.565-1.473-0.849-3.377-0.849-5.711c0-2.389,0.188-4.486,0.566-6.293c0.376-1.806,1.063-3.307,2.062-4.502
		c0.997-1.194,2.331-2.084,4.003-2.668c1.67-0.583,3.8-0.875,6.388-0.875c0.593,0,1.185,0.029,1.779,0.084
		c0.592,0.056,1.32,0.111,2.183,0.166V82.3c0-1.444-0.297-2.639-0.89-3.585c-0.594-0.943-1.671-1.416-3.234-1.416
		c-1.079,0-2.062,0.361-2.951,1.083c-0.89,0.724-1.47,1.779-1.738,3.168h-8.005c0.269-3.835,1.508-6.891,3.719-9.17
		c1.078-1.11,2.372-1.986,3.882-2.626c1.509-0.639,3.206-0.959,5.094-0.959c1.725,0,3.342,0.279,4.852,0.834
		c1.509,0.557,2.816,1.391,3.922,2.501c1.104,1.112,1.981,2.501,2.628,4.168c0.647,1.667,0.971,3.613,0.971,5.835v29.427h-8.248
		V107.225z M114.09,93.387c-0.917-0.167-1.672-0.25-2.264-0.25c-1.779,0-3.303,0.432-4.569,1.292
		c-1.267,0.862-1.899,2.432-1.899,4.71c0,1.612,0.376,2.918,1.132,3.918c0.754,1,1.806,1.501,3.153,1.501
		c1.401,0,2.493-0.472,3.275-1.418c0.78-0.943,1.172-2.277,1.172-4.001V93.387z"/>
	<path d="M143.362,81.133c-0.055-1.444-0.499-2.528-1.334-3.251c-0.837-0.722-1.793-1.083-2.871-1.083
		c-1.294,0-2.292,0.431-2.992,1.291c-0.701,0.863-1.051,1.849-1.051,2.959c0,0.779,0.188,1.543,0.566,2.293
		c0.376,0.75,1.347,1.432,2.91,2.043l4.853,2c3.072,1.224,5.188,2.891,6.347,5.002c1.159,2.112,1.739,4.418,1.739,6.919
		c0,1.779-0.312,3.432-0.931,4.96c-0.62,1.529-1.469,2.876-2.547,4.043c-1.079,1.167-2.373,2.084-3.881,2.751
		c-1.51,0.667-3.153,1-4.933,1c-1.617,0-3.153-0.278-4.609-0.833c-1.455-0.556-2.736-1.361-3.841-2.418
		c-1.105-1.055-2.009-2.376-2.709-3.96c-0.701-1.583-1.078-3.431-1.132-5.543h7.763c0.162,1.167,0.552,2.251,1.173,3.251
		c0.619,1,1.71,1.5,3.274,1.5c1.186,0,2.25-0.402,3.194-1.208c0.942-0.806,1.415-1.931,1.415-3.376c0-1.167-0.297-2.168-0.89-3.001
		c-0.594-0.834-1.672-1.556-3.234-2.168l-3.962-1.5c-2.588-1.001-4.623-2.486-6.105-4.46c-1.483-1.972-2.224-4.377-2.224-7.211
		c0-1.777,0.323-3.431,0.971-4.96c0.646-1.528,1.522-2.834,2.628-3.918c1.104-1.083,2.385-1.931,3.841-2.542
		c1.455-0.611,3.019-0.918,4.689-0.918s3.221,0.32,4.649,0.959c1.428,0.64,2.655,1.5,3.68,2.584
		c1.023,1.084,1.832,2.391,2.426,3.918c0.593,1.529,0.89,3.155,0.89,4.877H143.362z"/>
	<path d="M156.865,52.207h8.247v21.174h0.162c0.861-1.334,1.9-2.432,3.113-3.293s2.762-1.293,4.649-1.293
		c1.023,0,2.048,0.182,3.072,0.543c1.023,0.361,1.94,0.958,2.749,1.791c0.809,0.834,1.456,1.904,1.941,3.21
		c0.484,1.307,0.728,2.905,0.728,4.794v32.427h-8.248V82.3c0-1.556-0.352-2.778-1.051-3.668c-0.701-0.888-1.698-1.333-2.992-1.333
		c-1.564,0-2.642,0.5-3.234,1.5c-0.594,1-0.89,2.446-0.89,4.334v28.427h-8.247V52.207z"/>
</g>
</svg>
